<?xml version="1.0" encoding="UTF-8" standalone="no"?>
<!-- Created with Inkscape (http://www.inkscape.org/) -->

<svg
   width="61"
   height="60"
   viewBox="0 0 16.139584 15.875"
   version="1.1"
   id="svg4524"
   inkscape:version="1.2 (dc2aeda, 2022-05-15)"
   sodipodi:docname="color-picker-blue.svg"
   xml:space="preserve"
   xmlns:inkscape="http://www.inkscape.org/namespaces/inkscape"
   xmlns:sodipodi="http://sodipodi.sourceforge.net/DTD/sodipodi-0.dtd"
   xmlns="http://www.w3.org/2000/svg"
   xmlns:svg="http://www.w3.org/2000/svg"
   xmlns:rdf="http://www.w3.org/1999/02/22-rdf-syntax-ns#"
   xmlns:cc="http://creativecommons.org/ns#"
   xmlns:dc="http://purl.org/dc/elements/1.1/"><defs
     id="defs4518"><inkscape:path-effect
       effect="fill_between_many"
       method="originald"
       linkedpaths="#path10406,0,1"
       id="path-effect10413" /></defs><sodipodi:namedview
     id="base"
     pagecolor="#ffffff"
     bordercolor="#666666"
     borderopacity="1.0"
     inkscape:pageopacity="0.0"
     inkscape:pageshadow="2"
     inkscape:zoom="4.7360437"
     inkscape:cx="25.865471"
     inkscape:cy="50.569635"
     inkscape:document-units="mm"
     inkscape:current-layer="layer1"
     showgrid="false"
     units="px"
     inkscape:window-width="1449"
     inkscape:window-height="753"
     inkscape:window-x="204"
     inkscape:window-y="1136"
     inkscape:window-maximized="0"
     showguides="false"
     inkscape:showpageshadow="2"
     inkscape:pagecheckerboard="0"
     inkscape:deskcolor="#d1d1d1" /><metadata
     id="metadata4521"><rdf:RDF><cc:Work
         rdf:about=""><dc:format>image/svg+xml</dc:format><dc:type
           rdf:resource="http://purl.org/dc/dcmitype/StillImage" /><dc:title /></cc:Work></rdf:RDF></metadata><g
     inkscape:label="Layer 1"
     inkscape:groupmode="layer"
     id="layer1"
     transform="translate(0,-281.125)"
     style="display:inline"><path
       id="path11172"
       style="fill:none;stroke:#1d36eb;stroke-width:0.75959903;stroke-linecap:butt;stroke-linejoin:miter;stroke-miterlimit:4;stroke-dasharray:none;stroke-opacity:1"
       d="M 7.5788656 282.75384 C 6.0914895 282.74823 4.6729134 283.25534 3.6199341 284.12998 C 2.2764482 285.29277 1.4800512 287.13035 1.3906128 288.71885 C 1.2925226 290.46102 1.6075233 292.15786 2.6225789 293.29273 C 2.8496202 293.10031 3.0635246 292.87986 3.2390788 292.63231 C 3.5797574 292.15189 4.1478155 291.98259 4.6793009 292.09849 L 4.8606852 291.92641 L 10.843266 286.26939 L 11.141956 285.98672 L 12.353768 284.84054 C 10.943382 283.3911 9.219395 282.76004 7.5788656 282.75384 z M 13.478247 286.29058 L 12.396143 287.31377 L 6.115389 293.25294 L 5.8874959 293.46843 C 5.9087659 293.86745 5.7380457 294.25003 5.2927002 294.63735 C 5.1933892 294.70856 5.0735578 294.78555 4.9366496 294.85698 C 6.4194735 295.50898 7.9463191 295.6298 8.9885986 295.05076 C 9.2010373 294.93167 9.4082423 294.52216 9.2366455 294.08442 C 9.0288856 293.55443 8.0364774 293.41136 7.9819417 292.49433 C 7.9408658 291.80362 8.3158559 291.45106 8.6082601 291.27373 C 8.9620661 291.05916 9.3020614 290.93165 10.106877 291.1001 C 11.510751 291.35122 12.440017 293.157 13.712858 293.2054 C 14.37534 293.2306 14.763981 292.95211 14.949475 292.44162 C 15.192335 291.77327 15.086231 290.70748 14.787728 289.40667 C 14.459179 288.18323 14.010991 287.15074 13.478247 286.29058 z " /><circle
       style="fill:none;fill-opacity:0;stroke:#1d36eb;stroke-width:0.75959903;stroke-miterlimit:4;stroke-dasharray:none;stroke-opacity:1"
       id="path816"
       cx="3.672473"
       cy="289.86307"
       r="1.0668311" /><circle
       style="display:inline;fill:none;fill-opacity:0;stroke:#1d36eb;stroke-width:0.75959903;stroke-miterlimit:4;stroke-dasharray:none;stroke-opacity:1"
       id="path816-7"
       cx="5.0188437"
       cy="286.61035"
       r="1.0668311" /><circle
       style="display:inline;fill:none;fill-opacity:0;stroke:#1d36eb;stroke-width:0.75959903;stroke-miterlimit:4;stroke-dasharray:none;stroke-opacity:1"
       id="path816-0"
       cx="8.3484087"
       cy="285.27213"
       r="1.0668311" /><g
       id="g855"
       style="fill:none;fill-opacity:0.9935484;stroke:#1d36eb;stroke-opacity:1"
       transform="matrix(0.9518785,0,0,0.9518785,0.99324253,14.843292)"><rect
         transform="rotate(-43.399523)"
         y="214.29245"
         x="-197.05104"
         height="1.9181629"
         width="11.444562"
         id="rect844"
         style="fill:none;fill-opacity:0.9935484;stroke:#1d36eb;stroke-width:0.80135918;stroke-miterlimit:4;stroke-dasharray:none;stroke-opacity:1" /><rect
         transform="rotate(-43.399523)"
         y="214.29074"
         x="-197.05272"
         height="1.9215307"
         width="2.1617126"
         id="rect846"
         style="fill:none;fill-opacity:0.9935484;stroke:#1d36eb;stroke-width:0.79799998;stroke-miterlimit:4;stroke-dasharray:none;stroke-opacity:1" /><path
         sodipodi:nodetypes="ccccsc"
         inkscape:connector-curvature="0"
         id="path848"
         d="m 4.9828312,292.10084 c 0.2877562,0.64941 0.2231175,1.23827 -0.4664988,1.83802 -0.3919516,0.28104 -1.0768577,0.65497 -1.9452465,0.43461 -0.6673559,-0.1908 -2.47669825,-0.97682 -2.23369495,-1.0323 0.58646411,-0.21216 1.47699255,-0.74063 2.02165495,-1.50866 0.6391619,-0.90128 2.0399746,-0.76053 2.6237853,0.26833 z"
         style="fill:none;fill-opacity:0.9935484;stroke:#1d36eb;stroke-width:0.79799998;stroke-linecap:butt;stroke-linejoin:miter;stroke-miterlimit:4;stroke-dasharray:none;stroke-opacity:1" /></g><g
       id="g10318"
       style="fill:#ffffff;fill-opacity:0.993548;stroke:#1d36eb;stroke-opacity:1"
       transform="matrix(0.9518785,0,0,0.9518785,20.603803,14.843292)" /><g
       id="rect10324"
       transform="matrix(0.69161625,-0.65401807,0.65401807,0.69161625,39.086524,1.4168157)"
       style="fill:#ffffff;fill-opacity:0.993548;stroke:#1d36eb;stroke-opacity:1" /><g
       id="rect10326"
       transform="matrix(0.69161625,-0.65401807,0.65401807,0.69161625,39.086524,1.4168157)"
       style="fill:#ffffff;fill-opacity:0.993548;stroke:#1d36eb;stroke-opacity:1" /></g></svg>
